<svg xmlns="http://www.w3.org/2000/svg" width="56" height="56" viewBox="0 0 56 56">
  <path fill="#D8D8D8" d="M32.7272728,34.3636364 L32.7417464,34.3636364 C34.5441701,34.3636364 36,32.892137 36,31.0769506 L36,18.0139585 C36,16.2031916 34.5412301,14.7272728 32.7417464,14.7272728 L32.7272728,14.7272728 C32.7272728,6.59362464 26.133648,0 18,0 C9.86635197,0 3.27272724,6.59362464 3.27272724,14.7272728 L3.25825362,14.7272728 C1.4558301,14.7272728 0,16.198772 0,18.0139585 L0,31.0769506 C0,32.8877176 1.45876986,34.3636364 3.25825362,34.3636364 L3.27272724,34.3636364 C3.27272724,35.2736758 4.00051521,36 4.89828708,36 L31.1017129,36 C31.9991787,36 32.7272728,35.267375 32.7272728,34.3636364 L32.7272728,34.3636364 L32.7272728,34.3636364 Z" transform="translate(10.000000, 10.000000)"></path>
</svg>
