<svg width="23px" height="23px" viewBox="0 0 23 23" version="1.1" xmlns="http://www.w3.org/2000/svg" xmlns:xlink="http://www.w3.org/1999/xlink">
    <title>Combined Shape Copy 11</title>
    <desc>Created with Sketch.</desc>
    <defs></defs>
    <g id="购票-选座" stroke="none" stroke-width="1" fill="none" fill-rule="evenodd">
        <g id="Artboard" fill="#EF595D">
            <path d="M20.125,9.10416667 L20.6680645,9.10416667 C21.9559569,9.10416667 23,10.1508348 23,11.4314182 L23,19.3059452 C23,20.5618566 21.9993593,21.5854121 20.7557712,21.6315714 C20.7559884,21.6407142 20.7560976,21.6498798 20.7560976,21.6590668 L20.7560976,21.8351272 C20.7560976,22.4784687 20.246304,23 19.5966715,23 L4.24479191,23 C3.60445858,23 3.08536585,22.468583 3.08536585,21.8351272 L3.08536585,21.6590668 C3.08536585,21.6504211 3.08545792,21.6417974 3.08564116,21.6331967 L2.33193548,21.6331967 C1.04404308,21.6331967 0,20.5865286 0,19.3059452 L0,11.4314182 C0,10.1461127 1.04802811,9.10416667 2.33193548,9.10416667 L2.875,9.10416667 L2.875,8.76207651 C2.875,3.92291528 6.73549668,0 11.5,0 C16.263456,0 20.125,3.92716382 20.125,8.76207651 L20.125,9.10416667 L20.125,9.10416667 Z" id="Combined-Shape-Copy-11"></path>
        </g>
    </g>
</svg>