<svg width="35px" height="35px" viewBox="0 0 35 35" version="1.1" xmlns="http://www.w3.org/2000/svg" xmlns:xlink="http://www.w3.org/1999/xlink">
    <title>Artboard</title>
    <desc>Created with Sketch.</desc>
    <defs></defs>
    <g id="购票-选座" stroke="none" stroke-width="1" fill="none" fill-rule="evenodd">
        <g id="Artboard" fill="#EF595D">
            <path d="M26.125,15.1041667 L26.6680645,15.1041667 C27.9559569,15.1041667 29,16.1508348 29,17.4314182 L29,25.3059452 C29,26.5618566 27.9993593,27.5854121 26.7557712,27.6315714 C26.7559884,27.6407142 26.7560976,27.6498798 26.7560976,27.6590668 L26.7560976,27.8351272 C26.7560976,28.4784687 26.246304,29 25.5966715,29 L10.2447919,29 C9.60445858,29 9.08536585,28.468583 9.08536585,27.8351272 L9.08536585,27.6590668 C9.08536585,27.6504211 9.08545792,27.6417974 9.08564116,27.6331967 L8.33193548,27.6331967 C7.04404308,27.6331967 6,26.5865286 6,25.3059452 L6,17.4314182 C6,16.1461127 7.04802811,15.1041667 8.33193548,15.1041667 L8.875,15.1041667 L8.875,14.7620765 C8.875,9.92291528 12.7354967,6 17.5,6 C22.263456,6 26.125,9.92716382 26.125,14.7620765 L26.125,15.1041667 L26.125,15.1041667 Z" id="Combined-Shape-Copy-12"></path>
        </g>
    </g>
</svg>