<svg xmlns="http://www.w3.org/2000/svg" width="56" height="56" viewBox="0 0 56 56">
  <path fill="#D8D8D8" d="M32.7272727,34.3636364 L32.7417464,34.3636364 C34.54417,34.3636364 36,32.892137 36,31.0769506 L36,18.0139585 C36,16.2031916 34.5412301,14.7272727 32.7417464,14.7272727 L32.7272727,14.7272727 C32.7272727,6.59362467 26.1336481,0 18,0 C9.86635195,0 3.27272727,6.59362467 3.27272727,14.7272727 L3.25825364,14.7272727 C1.4558301,14.7272727 0,16.1987721 0,18.0139585 L0,31.0769506 C0,32.8877175 1.45876984,34.3636364 3.25825364,34.3636364 L3.27272727,34.3636364 C3.27272727,35.2736758 4.0005152,36 4.89828711,36 L31.1017129,36 C31.9991788,36 32.7272727,35.267375 32.7272727,34.3636364 Z" transform="translate(10.000000, 10.000000)"/>
</svg>
